{"title":"The Documentary of Ozbo.2014.WEBDL.RR.mp4","uid":14505087,"size":756440359,"categoryP":"video","categoryS":"movies","magnet":"?xt=urn:btih:d0a10ed77aa467683680dde4b185313cc338510f&amp;dn=The+Documentary+of+Ozbo.2014.WEBDL.RR.mp4&amp;tr=udp%3A%2F%2Ftracker.leechers-paradise.org%3A6969&amp;tr=udp%3A%2F%2Fzer0day.ch%3A1337&amp;tr=udp%3A%2F%2Fopen.demonii.com%3A1337&amp;tr=udp%3A%2F%2Ftracker.coppersurfer.tk%3A6969&amp;tr=udp%3A%2F%2Fexodus.desync.com%3A6969","seeders":0,"leechers":1,"uploader":"RadioResearch","files":1,"time":1462228959,"description":"The Documentary of OzBo takes you on a journey about a team of paranormal investigators hired by a museum to prove or disprove the legends of an evil clown named OzBo. When the investigation proves some of the legends to be true only a couple of the investigators escape the horror of OzBo himself. These survivors are interviewed in this documentary to inform you of their feelings of what happened during that investigation, thoughts, and more. \r\n\r\n\r\nScreencaps:  http://i.imgur.com/COjNFYU.jpg\r\n\r\nEnjoy!\r\nRR\r\n\r\nVideo\r\nID                                       : 1\r\nFormat                                   : AVC\r\nFormat/Info                              : Advanced Video Codec\r\nFormat profile                           :   \r\nFormat settings, CABAC                   : No\r\nFormat settings, ReFrames                : 4 frames\r\nCodec ID                                 : avc1\r\nCodec ID/Info                            : Advanced Video Coding\r\nDuration                                 : 1h 46mn\r\nSource duration                          : 1h 46mn\r\nBit rate                                 : 860 Kbps\r\nWidth                                    : 640 pixels\r\nHeight                                   : 360 pixels\r\nDisplay aspect ratio                     : 16:9\r\nFrame rate mode                          : Constant\r\nFrame rate                               : 30.242 fps\r\nColor space                              : YUV\r\nChroma subsampling                       : 4:2:0\r\nBit depth                                : 8 bits\r\nScan type                                : Progressive\r\nBits/(Pixel*Frame)                       : 0.123\r\nStream size                              : 655 MiB (91%)\r\nSource stream size                       : 655 MiB (91%)\r\nLanguage                                 : English\r\nEncoded date                             : UTC 2015-09-14 05:04:38\r\nTagged date                              : UTC 2015-09-14 05:04:38\r\nColor range                              : Limited\r\nColor primaries                          : BT.709\r\nTransfer characteristics                 : BT.709\r\nMatrix coefficients                      : BT.709\r\nmdhd_Duration                            : 6384135\r\n\r\nAudio\r\nID                                       : 2\r\nFormat                                   : AAC\r\nFormat/Info                              : Advanced Audio Codec\r\nFormat profile                           : LC\r\nCodec ID                                 : 40\r\nDuration                                 : 1h 46mn\r\nDuration_FirstFrame                      : -21ms\r\nBit rate mode                            : Variable\r\nBit rate                                 : 82.9 Kbps\r\nChannel(s)                               : 2 channels\r\nChannel positions                        : Front: L R\r\nSampling rate                            : 48.0 KHz\r\nFrame rate                               : 46.875 fps (1024 spf)\r\nCompression mode                         : Lossy\r\nStream size                              : 63.1 MiB (9%)\r\nLanguage                                 : English\r\nEncoded date                             : UTC 2015-09-14 05:04:38\r\nTagged date                              : UTC 2015-09-14 05:04:38\r\nmdhd_Duration                            : 6384150","torrent":{"xt":"urn:btih:d0a10ed77aa467683680dde4b185313cc338510f","amp;dn":"The+Documentary+of+Ozbo.2014.WEBDL.RR.mp4","amp;tr":["udp%3A%2F%2Ftracker.leechers-paradise.org%3A6969","udp%3A%2F%2Fzer0day.ch%3A1337","udp%3A%2F%2Fopen.demonii.com%3A1337","udp%3A%2F%2Ftracker.coppersurfer.tk%3A6969","udp%3A%2F%2Fexodus.desync.com%3A6969"],"infoHash":"d0a10ed77aa467683680dde4b185313cc338510f","infoHashBuffer":{"type":"Buffer","data":[208,161,14,215,122,164,103,104,54,128,221,228,177,133,49,60,195,56,81,15]},"announce":[],"urlList":[]}}